HIERARCHY
ROOT joint_Root
{
	OFFSET 0.0 0.0 0.0
	CHANNELS 6 Xposition Yposition Zposition Zrotation Xrotation Yrotation 
	JOINT Hips
	{
		OFFSET 4.5925 91.4895 -427.239
		CHANNELS 6 Xposition Yposition Zposition Zrotation Xrotation Yrotation 
		JOINT Spine
		{
			OFFSET 15.7357 0.0 0.0
			CHANNELS 6 Xposition Yposition Zposition Zrotation Xrotation Yrotation 
			JOINT Chest
			{
				OFFSET 8.98455 -0.406207 0.0
				CHANNELS 6 Xposition Yposition Zposition Zrotation Xrotation Yrotation 
				JOINT Neck
				{
					OFFSET 16.3773 0.0 0.0
					CHANNELS 6 Xposition Yposition Zposition Zrotation Xrotation Yrotation 
					JOINT Head
					{
						OFFSET 6.45672 0.0 0.0
						CHANNELS 6 Xposition Yposition Zposition Zrotation Xrotation Yrotation 
						End Site
						{
							OFFSET 0.0 0.0 0.0
						}
					}
				}
				JOINT Shoulder_L
				{
					OFFSET 12.9942 -0.242716 4.98039
					CHANNELS 6 Xposition Yposition Zposition Zrotation Xrotation Yrotation 
					JOINT UpperArm_L
					{
						OFFSET 5.34809 0.0 0.0
						CHANNELS 6 Xposition Yposition Zposition Zrotation Xrotation Yrotation 
						JOINT LowerArm_L
						{
							OFFSET 24.3286 1.87007e-05 0.0
							CHANNELS 6 Xposition Yposition Zposition Zrotation Xrotation Yrotation 
							JOINT Hand_L
							{
								OFFSET 22.2916 0.0 0.0
								CHANNELS 6 Xposition Yposition Zposition Zrotation Xrotation Yrotation 
								End Site
								{
									OFFSET 0.0 0.0 0.0
								}
							}
						}
					}
				}
				JOINT Shoulder_R
				{
					OFFSET 12.9945 -0.242716 -4.98039
					CHANNELS 6 Xposition Yposition Zposition Zrotation Xrotation Yrotation 
					JOINT UpperArm_R
					{
						OFFSET -5.34813 0.0 0.0
						CHANNELS 6 Xposition Yposition Zposition Zrotation Xrotation Yrotation 
						JOINT LowerArm_R
						{
							OFFSET -24.3289 0.000322201 0.0
							CHANNELS 6 Xposition Yposition Zposition Zrotation Xrotation Yrotation 
							JOINT Hand_R
							{
								OFFSET -22.2915 -0.000108084 0.0
								CHANNELS 6 Xposition Yposition Zposition Zrotation Xrotation Yrotation 
								End Site
								{
									OFFSET 0.0 0.0 0.0
								}
							}
						}
					}
				}
			}
		}
		JOINT UpperLeg_L
		{
			OFFSET -2.19248 -6.46944 0.0
			CHANNELS 6 Xposition Yposition Zposition Zrotation Xrotation Yrotation 
			JOINT LowerLeg_L
			{
				OFFSET 39.0811 0.0 -1.23785e-05
				CHANNELS 6 Xposition Yposition Zposition Zrotation Xrotation Yrotation 
				JOINT Foot_L
				{
					OFFSET 40.9854 0.0 -1.26872e-05
					CHANNELS 6 Xposition Yposition Zposition Zrotation Xrotation Yrotation 
					JOINT Toes_L
					{
						OFFSET 11.7543 0.0 0.0
						CHANNELS 6 Xposition Yposition Zposition Zrotation Xrotation Yrotation 
						End Site
						{
							OFFSET 0.0 0.0 0.0
						}
					}
				}
			}
		}
		JOINT UpperLeg_R
		{
			OFFSET -2.19251 6.46944 0.0
			CHANNELS 6 Xposition Yposition Zposition Zrotation Xrotation Yrotation 
			JOINT LowerLeg_R
			{
				OFFSET -39.0811 -0.00228153 -0.0401928
				CHANNELS 6 Xposition Yposition Zposition Zrotation Xrotation Yrotation 
				JOINT Foot_R
				{
					OFFSET -40.9854 0.0 0.0
					CHANNELS 6 Xposition Yposition Zposition Zrotation Xrotation Yrotation 
					JOINT Toes_R
					{
						OFFSET -11.7543 0.0 0.0
						CHANNELS 6 Xposition Yposition Zposition Zrotation Xrotation Yrotation 
						End Site
						{
							OFFSET 0.0 0.0 0.0
						}
					}
				}
			}
		}
	}
}
MOTION
Frames:	6
Frame Time:	0.0333333
0.000000 0.000000 0.000000 0.000000 0.000000 -0.000000 -1.459180 90.259300 2.606290 89.576000 -5.181640 11.036900 15.735700 0.000005 -0.000001 85.174200 82.297900 -84.298800 8.984550 -0.406207 -0.000000 7.595420 -1.292110 1.834840 16.377300 -0.000001 -0.000001 8.688310 -4.388310 1.631350 6.456720 -0.000001 -0.000000 -1.425150 -4.244390 0.525124 12.994200 -0.242716 4.980390 -91.996400 6.994840 -74.026900 5.348090 -0.000007 -0.000001 -63.050100 37.884800 -16.577100 24.328600 0.000019 0.000005 9.751540 25.451800 -21.796500 22.291600 -0.000001 0.000005 5.823040 5.309090 -0.184030 12.994500 -0.242716 -4.980390 88.100100 11.975400 -80.917000 -5.348130 -0.000001 -0.000004 -60.884600 36.210100 -10.110300 -24.328900 0.000322 -0.000009 1.307180 3.966700 -18.269300 -22.291500 -0.000108 -0.000004 12.178200 5.393570 -2.729690 -2.192480 -6.469440 -0.000000 -173.736000 -12.949100 4.299160 39.081100 -0.000007 -0.000012 -0.215626 0.360856 30.860400 40.985400 -0.000006 -0.000013 0.033387 5.431710 -73.636600 11.754300 -0.000000 0.000003 -0.000176 -0.001664 -16.640500 -2.192510 6.469440 -0.000001 173.138000 17.884500 -174.753000 -39.081100 -0.002282 -0.040193 -0.256961 0.446596 30.232700 -40.985400 0.000008 0.000006 3.417670 13.975100 -74.040300 -11.754300 -0.000006 -0.000006 -0.001425 -0.021265 -17.437800
0.000000 0.000000 0.000000 0.000000 0.000000 -0.000000 -1.489060 90.253400 2.555170 89.567600 -5.189550 11.157100 15.735700 0.000005 -0.000001 85.226100 82.277000 -84.325200 8.984550 -0.406207 -0.000000 7.638630 -1.281400 1.885440 16.377300 -0.000001 -0.000001 9.443170 -4.553000 1.691500 6.456720 -0.000001 -0.000000 -0.447355 -4.452460 0.390142 12.994200 -0.242716 4.980390 -92.007200 6.992930 -73.940700 5.348090 -0.000007 -0.000001 -62.756600 37.833900 -16.865200 24.328600 0.000019 0.000005 9.912690 25.430600 -22.144300 22.291600 -0.000001 0.000005 5.835790 5.308700 -0.173051 12.994500 -0.242716 -4.980390 88.077700 11.959600 -80.799700 -5.348130 -0.000001 -0.000004 -60.786300 36.189700 -10.081700 -24.328900 0.000322 -0.000009 1.318710 4.023150 -18.178600 -22.291500 -0.000108 -0.000004 12.313200 5.392980 -2.710790 -2.192480 -6.469440 -0.000000 -173.661000 -12.986200 4.364800 39.081100 -0.000007 -0.000012 -0.216841 0.362013 30.921400 40.985400 -0.000006 -0.000013 0.032497 5.497590 -73.631300 11.754300 -0.000000 0.000003 -0.000175 -0.001656 -16.640200 -2.192510 6.469440 -0.000001 173.159000 17.852100 -174.693000 -39.081100 -0.002282 -0.040193 -0.254307 0.440979 30.292800 -40.985400 0.000008 0.000006 3.438790 13.916200 -74.045000 -11.754300 -0.000006 -0.000006 -0.001365 -0.020463 -17.405200
0.000000 0.000000 0.000000 0.000000 0.000000 -0.000000 -1.505360 90.252000 2.519040 89.596600 -5.154570 11.285100 15.735700 0.000005 -0.000001 85.168100 82.266100 -84.255000 8.984550 -0.406207 -0.000000 7.659240 -1.298560 1.911220 16.377300 -0.000001 -0.000001 10.273500 -4.671050 1.739250 6.456720 -0.000001 -0.000000 0.493709 -4.642960 0.325052 12.994200 -0.242716 4.980390 -91.992800 6.919410 -73.890000 5.348090 -0.000007 -0.000001 -62.552800 37.781100 -17.154800 24.328600 0.000019 0.000005 9.982090 25.259900 -22.413800 22.291600 -0.000001 0.000005 5.926270 5.310360 -0.220010 12.994500 -0.242716 -4.980390 88.070100 11.903200 -80.721600 -5.348130 -0.000001 -0.000004 -60.731700 36.197600 -10.055600 -24.328900 0.000322 -0.000009 1.315420 4.047370 -18.035000 -22.291500 -0.000108 -0.000004 12.253200 5.392430 -2.692850 -2.192480 -6.469440 -0.000000 -173.646000 -12.983100 4.463720 39.081100 -0.000007 -0.000012 -0.218238 0.364220 30.930100 40.985400 -0.000006 -0.000013 0.032229 5.530710 -73.608800 11.754300 -0.000000 0.000003 -0.000186 -0.001743 -16.643400 -2.192510 6.469440 -0.000001 173.098000 17.886300 -174.598000 -39.081100 -0.002282 -0.040193 -0.252831 0.437692 30.336000 -40.985400 0.000008 0.000006 3.468120 13.933700 -74.054500 -11.754300 -0.000006 -0.000006 -0.001319 -0.019835 -17.379700
0.000000 0.000000 0.000000 0.000000 0.000000 -0.000000 -1.528130 90.249200 2.468420 89.622900 -5.114180 11.405200 15.735700 0.000005 -0.000001 85.049100 82.268100 -84.123900 8.984550 -0.406207 -0.000000 7.653000 -1.330150 1.937660 16.377300 -0.000001 -0.000001 11.123500 -4.783770 1.819580 6.456720 -0.000001 -0.000000 1.430410 -4.824610 0.225961 12.994200 -0.242716 4.980390 -91.980700 6.847250 -73.823700 5.348090 -0.000007 -0.000001 -62.305000 37.781700 -17.450500 24.328600 0.000019 0.000005 10.138100 25.149300 -22.819200 22.291600 -0.000001 0.000005 5.945960 5.310200 -0.215431 12.994500 -0.242716 -4.980390 88.073400 11.794800 -80.654700 -5.348130 -0.000001 -0.000004 -60.775200 36.132800 -10.034000 -24.328900 0.000322 -0.000009 1.322050 4.104390 -17.884700 -22.291500 -0.000108 -0.000004 12.132200 5.388150 -2.556160 -2.192480 -6.469440 -0.000000 -173.614000 -12.999500 4.530860 39.081100 -0.000007 -0.000012 -0.220480 0.367512 30.961000 40.985400 -0.000006 -0.000013 0.028783 5.586240 -73.580900 11.754300 -0.000000 0.000003 -0.000165 -0.001578 -16.637400 -2.192510 6.469440 -0.000001 173.050000 17.917200 -174.525000 -39.081100 -0.002282 -0.040193 -0.254180 0.439016 30.391800 -40.985400 0.000008 0.000006 3.493640 13.921800 -74.063100 -11.754300 -0.000006 -0.000006 -0.001376 -0.020607 -17.411100
0.000000 0.000000 0.000000 0.000000 0.000000 -0.000000 -1.558550 90.253100 2.385640 89.624100 -5.013730 11.507800 15.735700 0.000005 -0.000001 84.876000 82.281900 -83.931100 8.984550 -0.406207 -0.000000 7.622290 -1.374380 1.979550 16.377300 -0.000001 -0.000001 12.024300 -4.908650 1.919570 6.456720 -0.000001 -0.000000 2.310050 -5.044410 0.138955 12.994200 -0.242716 4.980390 -91.964400 6.770710 -73.778900 5.348090 -0.000007 -0.000001 -62.105000 37.582000 -17.763300 24.328600 0.000019 0.000005 10.344300 25.043000 -23.326000 22.291600 -0.000001 0.000005 5.823860 5.311040 -0.239315 12.994500 -0.242716 -4.980390 88.079900 11.676000 -80.594200 -5.348130 -0.000001 -0.000004 -60.885400 36.111200 -9.958640 -24.328900 0.000322 -0.000009 1.356800 4.256320 -17.712100 -22.291500 -0.000108 -0.000004 12.161300 5.390420 -2.628520 -2.192480 -6.469440 -0.000000 -173.600000 -12.914200 4.545890 39.081100 -0.000007 -0.000012 -0.215643 0.358951 30.996000 40.985400 -0.000006 -0.000013 0.036234 5.646970 -73.535600 11.754300 -0.000000 0.000003 -0.000170 -0.001614 -16.638700 -2.192510 6.469440 -0.000001 173.030000 17.994000 -174.470000 -39.081100 -0.002282 -0.040193 -0.255778 0.441258 30.419200 -40.985400 0.000008 0.000006 3.525560 13.924200 -74.038900 -11.754300 -0.000006 -0.000006 -0.001398 -0.020909 -17.423400
0.000000 0.000000 0.000000 0.000000 0.000000 -0.000000 -1.593150 90.250100 2.300710 89.593800 -4.958790 11.605400 15.735700 0.000005 -0.000001 84.837300 82.314600 -83.864700 8.984550 -0.406207 -0.000000 7.556470 -1.379510 2.034350 16.377300 -0.000001 -0.000001 12.918400 -5.049950 2.021160 6.456720 -0.000001 -0.000000 3.277350 -5.271160 0.079739 12.994200 -0.242716 4.980390 -91.937400 6.675180 -73.774600 5.348090 -0.000007 -0.000001 -61.936700 37.206100 -18.012200 24.328600 0.000019 0.000005 10.520800 24.660000 -23.994300 22.291600 -0.000001 0.000005 5.905290 5.314740 -0.344823 12.994500 -0.242716 -4.980390 88.090500 11.546900 -80.543800 -5.348130 -0.000001 -0.000004 -61.079400 36.035700 -9.821840 -24.328900 0.000322 -0.000009 1.368630 4.318890 -17.614600 -22.291500 -0.000108 -0.000004 12.187700 5.388610 -2.571100 -2.192480 -6.469440 -0.000000 -173.502000 -12.900900 4.549350 39.081100 -0.000007 -0.000012 -0.222427 0.369077 31.075900 40.985400 -0.000006 -0.000013 0.039730 5.759050 -73.513200 11.754300 -0.000000 0.000003 -0.000166 -0.001580 -16.637400 -2.192510 6.469440 -0.000001 173.059000 18.082500 -174.436000 -39.081100 -0.002282 -0.040193 -0.254285 0.437779 30.472600 -40.985400 0.000008 0.000006 3.574510 13.922000 -74.026100 -11.754300 -0.000006 -0.000006 -0.001386 -0.020749 -17.416800
